<?xml version="1.0" encoding="UTF-8"?><svg id="a" xmlns="http://www.w3.org/2000/svg" viewBox="0 0 250.51 167.96"><defs><style>.b{fill:#4f4b4b;}</style></defs><path class="b" d="M67.28,107.84c-28.15,0-50.1-31.02-50.1-57.74S39.61,0,67.28,0s50.1,22.43,50.1,50.1-21.95,57.74-50.1,57.74h0Zm0-93.53h0c-19.56,0-35.79,16.22-35.79,35.79s15.75,43.9,35.79,43.9,36.26-23.86,36.26-43.9S87.32,14.31,67.28,14.31h0Z"/><path class="b" d="M183.71,107.84c-28.63,0-50.58-31.02-50.58-57.74S156.03,0,183.71,0s50.1,22.43,50.1,50.1-21.95,57.74-50.1,57.74h0Zm0-93.53h0c-20.04,0-36.26,16.22-36.26,35.79s16.22,43.9,36.26,43.9,35.79-23.86,35.79-43.9-16.22-35.79-35.79-35.79h0Z"/><path class="b" d="M243.36,57.26h-16.7c-3.82,0-7.16-2.86-7.16-7.16,0-3.82,3.34-6.68,7.16-6.68h16.7c3.82,0,7.16,2.86,7.16,6.68,0,4.29-3.34,7.16-7.16,7.16h0Z"/><path class="b" d="M140.29,64.89c-3.82,0-7.16-3.34-7.16-7.16,0-4.29-3.34-7.63-7.63-7.63s-8.11,3.34-8.11,7.63c0,3.82-2.86,7.16-6.68,7.16-4.29,0-7.16-3.34-7.16-7.16,0-11.93,9.54-21.95,21.95-21.95s21.95,10.02,21.95,21.95c0,3.82-3.34,7.16-7.16,7.16h0Z"/><path class="b" d="M23.86,57.26H7.16c-3.82,0-7.16-2.86-7.16-7.16,0-3.82,3.34-6.68,7.16-6.68H23.86c3.82,0,7.16,2.86,7.16,6.68,0,4.29-3.34,7.16-7.16,7.16h0Z"/><path class="b" d="M71.58,167.96c-7.63,0-14.79-1.43-22.43-4.29-3.34-1.43-5.25-5.25-3.82-9.07,1.43-3.34,5.25-5.25,9.07-3.82,10.5,3.82,21.95,4.29,33.4,.48,5.25-1.91,10.02-5.73,14.79-9.54l2.86-2.39c14.32-11.45,30.06-11.93,44.85,0l2.86,2.39c2.86,2.39,5.73,4.77,8.59,6.68,10.02,5.73,21.47,7.16,35.31,3.34,3.82-.95,7.63,1.43,8.59,5.25,.95,3.82-1.43,7.63-5.25,8.59-17.66,4.29-32.92,2.86-45.81-5.25-3.82-2.39-7.16-5.25-10.5-7.63l-2.86-2.39c-9.54-7.63-17.66-7.63-27.2,0l-2.39,1.91c-5.73,4.77-11.45,9.54-19.56,12.41-6.68,2.39-13.84,3.34-20.52,3.34h0Z"/></svg>