<?xml version="1.0" encoding="UTF-8"?><svg id="a" xmlns="http://www.w3.org/2000/svg" viewBox="0 0 702.34 562.99"><defs><style>.b{fill:#f6ab3f;}</style></defs><g><path class="b" d="M328.43,405.94c-4.23-.36-8.45-.73-12.68-1.07-19.7-1.56-39.1-4.74-57.86-11.18-10.99-3.77-21.52-8.48-30.34-16.31-4.44-3.94-7.89-8.59-9.62-14.33-3.17-10.57,.43-19.3,7.78-26.77,7.42-7.54,16.71-12.15,26.42-15.92,12.89-5.01,26.26-8.25,39.87-10.54,.61-.1,1.21-.3,2.03-.51-.51-.89-.87-1.61-1.3-2.29-9.58-14.96-19.33-29.81-28.7-44.9-12.14-19.57-16.62-40.9-12.53-63.59,5.88-32.62,24.12-56.38,54.45-69.42,31.26-13.43,61.59-9.71,89.4,10.11,19.28,13.73,31.26,32.65,36.06,55.77,4.94,23.84,.99,46.4-11.94,67.14-9.4,15.07-19.13,29.94-28.7,44.9-.43,.67-.79,1.39-1.3,2.3,5.55,1.13,10.9,2.1,16.18,3.33,15.08,3.53,29.88,7.89,43.07,16.37,7.26,4.67,13.54,10.29,16.55,18.79,3,8.49,1.38,16.23-3.7,23.37-5.13,7.21-12.36,11.9-20.09,15.82-15.84,8.04-32.85,12.39-50.3,14.94-11.24,1.64-22.62,2.38-33.93,3.54-.91,.09-1.81,.3-2.71,.45h-26.11Zm13.28-53.09c.81-1.21,1.38-2.02,1.92-2.86,19.96-31.27,39.83-62.6,59.9-93.8,15.9-24.72,17.95-50.49,4.85-76.67-12.04-24.05-32.14-38.06-58.95-40.77-28.32-2.86-51.23,7.92-68.29,30.67-17.99,23.99-19.11,58.73-3.02,83.88,14.16,22.13,28.33,44.26,42.48,66.4,6.97,10.91,13.91,21.84,21.12,33.16Zm-.04,36.82c10.43-.67,20.88-1.12,31.28-2.05,18.11-1.63,35.88-5.06,52.86-11.77,7.75-3.06,15.34-6.58,21.04-13,4.28-4.82,4.23-8.96,0-13.79-3.98-4.55-9.06-7.61-14.41-10.18-16.36-7.87-33.91-11.4-51.75-13.76-.7-.09-1.8,.71-2.27,1.39-2.09,3.05-4.03,6.2-6.02,9.32-7.65,12.01-15.32,24.01-22.94,36.05-2.18,3.45-5.06,5.32-9.25,4.66-3.01-.48-4.8-2.51-6.34-4.94-9.42-14.83-18.89-29.63-28.29-44.48-.98-1.55-1.81-2.4-3.93-1.94-3.87,.86-7.86,1.17-11.77,1.89-14.68,2.71-29.15,6.26-42.24,13.72-4.11,2.34-7.96,5.43-11.3,8.79-4.07,4.11-3.85,8.51,0,12.85,1.76,1.99,3.78,3.83,5.95,5.36,8.74,6.13,18.66,9.7,28.82,12.59,23.05,6.55,46.66,8.71,70.55,9.27Z"/><path class="b" d="M383.43,213.64c.04,22.93-18.74,41.73-41.67,41.72-22.93,0-41.7-18.82-41.65-41.74,.05-22.83,18.7-41.51,41.53-41.58,22.92-.08,41.75,18.67,41.79,41.6Zm-16.68,.02c-.04-13.61-11.35-24.91-24.95-24.94-13.59-.03-24.91,11.24-25.01,24.88-.1,13.65,11.44,25.19,25.09,25.08,13.64-.11,24.91-11.45,24.87-25.02Z"/></g><g><path class="b" d="M328.43,405.94c-4.23-.36-8.45-.73-12.68-1.07-19.7-1.56-39.1-4.74-57.86-11.18-10.99-3.77-21.52-8.48-30.34-16.31-4.44-3.94-7.89-8.59-9.62-14.33-3.17-10.57,.43-19.3,7.78-26.77,7.42-7.54,16.71-12.15,26.42-15.92,12.89-5.01,26.26-8.25,39.87-10.54,.61-.1,1.21-.3,2.03-.51-.51-.89-.87-1.61-1.3-2.29-9.58-14.96-19.33-29.81-28.7-44.9-12.14-19.57-16.62-40.9-12.53-63.59,5.88-32.62,24.12-56.38,54.45-69.42,31.26-13.43,61.59-9.71,89.4,10.11,19.28,13.73,31.26,32.65,36.06,55.77,4.94,23.84,.99,46.4-11.94,67.14-9.4,15.07-19.13,29.94-28.7,44.9-.43,.67-.79,1.39-1.3,2.3,5.55,1.13,10.9,2.1,16.18,3.33,15.08,3.53,29.88,7.89,43.07,16.37,7.26,4.67,13.54,10.29,16.55,18.79,3,8.49,1.38,16.23-3.7,23.37-5.13,7.21-12.36,11.9-20.09,15.82-15.84,8.04-32.85,12.39-50.3,14.94-11.24,1.64-22.62,2.38-33.93,3.54-.91,.09-1.81,.3-2.71,.45h-26.11Zm13.28-53.09c.81-1.21,1.38-2.02,1.92-2.86,19.96-31.27,39.83-62.6,59.9-93.8,15.9-24.72,17.95-50.49,4.85-76.67-12.04-24.05-32.14-38.06-58.95-40.77-28.32-2.86-51.23,7.92-68.29,30.67-17.99,23.99-19.11,58.73-3.02,83.88,14.16,22.13,28.33,44.26,42.48,66.4,6.97,10.91,13.91,21.84,21.12,33.16Zm-.04,36.82c10.43-.67,20.88-1.12,31.28-2.05,18.11-1.63,35.88-5.06,52.86-11.77,7.75-3.06,15.34-6.58,21.04-13,4.28-4.82,4.23-8.96,0-13.79-3.98-4.55-9.06-7.61-14.41-10.18-16.36-7.87-33.91-11.4-51.75-13.76-.7-.09-1.8,.71-2.27,1.39-2.09,3.05-4.03,6.2-6.02,9.32-7.65,12.01-15.32,24.01-22.94,36.05-2.18,3.45-5.06,5.32-9.25,4.66-3.01-.48-4.8-2.51-6.34-4.94-9.42-14.83-18.89-29.63-28.29-44.48-.98-1.55-1.81-2.4-3.93-1.94-3.87,.86-7.86,1.17-11.77,1.89-14.68,2.71-29.15,6.26-42.24,13.72-4.11,2.34-7.96,5.43-11.3,8.79-4.07,4.11-3.85,8.51,0,12.85,1.76,1.99,3.78,3.83,5.95,5.36,8.74,6.13,18.66,9.7,28.82,12.59,23.05,6.55,46.66,8.71,70.55,9.27Z"/><path class="b" d="M383.43,213.64c.04,22.93-18.74,41.73-41.67,41.72-22.93,0-41.7-18.82-41.65-41.74,.05-22.83,18.7-41.51,41.53-41.58,22.92-.08,41.75,18.67,41.79,41.6Zm-16.68,.02c-.04-13.61-11.35-24.91-24.95-24.94-13.59-.03-24.91,11.24-25.01,24.88-.1,13.65,11.44,25.19,25.09,25.08,13.64-.11,24.91-11.45,24.87-25.02Z"/></g></svg>